<?xml version="1.0" encoding="UTF-8" standalone="no"?>
<svg
   id="svg24"
   version="1.1"
   viewBox="0 0 100 21"
   height="21"
   width="100"
   sodipodi:docname="Sinovac_logo.svg"
   inkscape:version="1.1 (c68e22c387, 2021-05-23)"
   xmlns:inkscape="http://www.inkscape.org/namespaces/inkscape"
   xmlns:sodipodi="http://sodipodi.sourceforge.net/DTD/sodipodi-0.dtd"
   xmlns="http://www.w3.org/2000/svg"
   xmlns:svg="http://www.w3.org/2000/svg"
   xmlns:rdf="http://www.w3.org/1999/02/22-rdf-syntax-ns#"
   xmlns:cc="http://creativecommons.org/ns#"
   xmlns:dc="http://purl.org/dc/elements/1.1/">
  <title
     id="title2016">Sputnik V logo</title>
  <defs
     id="defs8" />
  <sodipodi:namedview
     id="namedview6"
     pagecolor="#ffffff"
     bordercolor="#111111"
     borderopacity="1"
     inkscape:pageshadow="0"
     inkscape:pageopacity="0"
     inkscape:pagecheckerboard="1"
     showgrid="false"
     height="18px"
     inkscape:zoom="4"
     inkscape:cx="50.125"
     inkscape:cy="36"
     inkscape:window-width="1600"
     inkscape:window-height="878"
     inkscape:window-x="-8"
     inkscape:window-y="-8"
     inkscape:window-maximized="1"
     inkscape:current-layer="svg24" />
  <g
     id="#231815ff"
     transform="matrix(0.41727684,0,0,0.41727684,-32.201042,10.17658)" />
  <metadata
     id="metadata2349">
    <rdf:RDF>
      <cc:Work
         rdf:about="">
        <dc:date>14 oct 2021</dc:date>
        <cc:license
           rdf:resource="http://scripts.sil.org/OFL" />
        <dc:title>Sputnik V logo</dc:title>
      </cc:Work>
      <cc:License
         rdf:about="http://scripts.sil.org/OFL">
        <cc:permits
           rdf:resource="http://scripts.sil.org/pub/OFL/Reproduction" />
        <cc:permits
           rdf:resource="http://scripts.sil.org/pub/OFL/Distribution" />
        <cc:permits
           rdf:resource="http://scripts.sil.org/pub/OFL/Embedding" />
        <cc:permits
           rdf:resource="http://scripts.sil.org/pub/OFL/DerivativeWorks" />
        <cc:requires
           rdf:resource="http://scripts.sil.org/pub/OFL/Notice" />
        <cc:requires
           rdf:resource="http://scripts.sil.org/pub/OFL/Attribution" />
        <cc:requires
           rdf:resource="http://scripts.sil.org/pub/OFL/ShareAlike" />
        <cc:requires
           rdf:resource="http://scripts.sil.org/pub/OFL/DerivativeRenaming" />
        <cc:requires
           rdf:resource="http://scripts.sil.org/pub/OFL/BundlingWhenSelling" />
      </cc:License>
    </rdf:RDF>
  </metadata>
  <path
     id="Path_49"
     data-name="Path 49"
     d="m 16.311773,19.616149 v -2.688717 h -1.00827 c -1.643105,0 -1.643105,-2.464658 0,-2.464658 h 2.240598 c -0.792294,-1.056325 -1.224293,-2.339232 -1.232328,-3.659644 -0.0095,-1.3232884 0.424291,-2.6116649 1.232328,-3.6596436 h -2.240598 c -1.643766,6.622e-4 -1.643766,-2.4639958 0,-2.464658 h 7.132571 c 3.382361,10e-8 6.124299,2.7419434 6.124299,6.1243016 0,3.382359 -2.741938,6.124302 -6.124299,6.124302 h -3.6223 v 2.688717 c -6.67e-4,1.667333 -2.502668,1.667333 -2.502001,0 z m 15.236066,-4.07042 C 30.53957,14.574804 30.054107,13.267788 30.054107,11.624683 V 5.8364704 c 0.0059,-0.6781447 0.554184,-1.2264458 1.232329,-1.232328 0.670811,-0.011642 1.22333,0.5241338 1.232329,1.194985 v 0 5.5268086 c -0.05746,0.897179 0.237276,1.781392 0.821553,2.464658 1.225782,1.195002 3.180727,1.195002 4.406509,0 0.568614,-0.692021 0.861231,-1.569873 0.821553,-2.464658 v -5.5268086 0 c 0.02192,-0.6652039 0.566766,-1.193536 1.232329,-1.194985 0.670811,-0.011642 1.22333,0.5241338 1.232329,1.194985 v 0 5.8628986 c 0,1.643105 -0.485463,2.950121 -1.493732,3.921047 -1.008269,0.970926 -2.315285,1.456388 -3.995734,1.456388 -1.680448,0 -2.987464,-0.485462 -3.995733,-1.493732 z M 91.9693,16.180566 v 0 L 86.442491,2.6622904 c -0.02135,-0.033071 -0.0249,-0.074689 -0.03735,-0.112033 v 0 l -0.11203,-0.44812 c 0.0087,-0.7182249 0.588791,-1.2983501 1.307016,-1.30701499 0.562239,-0.001867 1.060875,0.36077639 1.232329,0.89623899 L 93.089592,12.520919 97.197355,1.8033914 c 0.364998,-1.49499792 2.563441,-1.24010637 2.576688,0.298746 l -0.0747,0.373433 v 0 c 0,0 -0.09515,0.2219312 -0.11207,0.2614 L 94.284528,16.06853 c -0.154486,0.552643 -0.6585,0.934472 -1.232329,0.933582 -0.493037,-0.032 -0.919301,-0.355369 -1.082956,-0.821552 z M 1.523824,15.583073 C 0.90418629,15.057755 0.43941659,14.373511 0.17946523,13.603878 v 0 C 0.13649155,13.458086 0.11141183,13.307607 0.10477863,13.155758 0.09954012,11.672546 2.1814687,11.335763 2.6441231,12.744982 v 0 c 0.1575231,0.415541 0.4293959,0.778038 0.7842093,1.045612 0.6770222,0.504518 1.5095532,0.755599 2.3526279,0.709523 0.7819969,0.01821 1.5508384,-0.203323 2.2032548,-0.634836 0.5727342,-0.364252 0.9128128,-1.0019 0.896239,-1.680449 0.00614,-0.150343 -0.0064,-0.300867 -0.037343,-0.448119 C 8.8163027,11.604229 8.765693,11.477705 8.6937381,11.36328 8.6281983,11.257155 8.553207,11.157166 8.4696781,11.064533 8.378432,10.968308 8.2784174,10.880795 8.1709316,10.80313 8.0479382,10.746364 7.9345468,10.670769 7.8348419,10.57907 7.6983282,10.489603 7.5463744,10.426289 7.3867223,10.392354 7.2000058,10.317667 7.0506326,10.280324 6.9386026,10.242981 6.8265727,10.205637 6.6398562,10.168294 6.4157964,10.093608 6.1917366,10.018921 6.0050201,9.9815775 5.8929902,9.9442335 5.7809603,9.9068905 5.5942438,9.8695475 5.3328407,9.7948605 4.3525767,9.5711129 3.3911997,9.2714629 2.4574066,8.8986212 1.237654,8.385477 0.38378754,7.2612195 0.21680853,5.9485004 0.18465319,5.7385094 0.17215139,5.5259771 0.17946553,5.3136644 0.10940123,4.0397841 0.66735493,2.8122861 1.6731975,2.0274544 2.6441234,1.2432444 3.9884822,0.83246841 5.6689307,0.83246841 c 1.6804486,0 3.0248074,0.41077599 3.9583904,1.26967199 0.6368329,0.5734538 1.0803859,1.3301035 1.2696719,2.165912 0.03074,0.096432 0.0434,0.1977141 0.03734,0.298746 0.0059,0.7036364 -0.566035,1.2755393 -1.2696719,1.269672 -0.5586226,-0.00913 -1.0515236,-0.3676068 -1.232329,-0.896239 v 0 C 8.3153129,4.4939422 8.0524179,4.0995998 7.685466,3.8199324 7.0773085,3.3838286 6.342202,3.1606713 5.5942411,3.1850964 4.8744635,3.1662849 4.1635454,3.3472458 3.5403596,3.7079024 3.0123041,3.9981075 2.6940679,4.5622536 2.718807,5.1642914 c -0.00242,0.2167345 0.035569,0.4320224 0.1120299,0.634836 0.076314,0.2040879 0.2051273,0.3844265 0.373433,0.522806 0.1652118,0.1366931 0.3399197,0.2614845 0.5228062,0.373433 0.2377902,0.1254973 0.4881232,0.2256304 0.746866,0.298746 0.2568578,0.089765 0.5186994,0.1645777 0.7842093,0.224061 0.2940256,0.09244 0.5933035,0.1672593 0.8962392,0.224059 0.9989336,0.2158876 1.9744649,0.5285581 2.9127775,0.933583 1.3443589,0.672179 2.1285689,1.6431056 2.3526279,2.9874646 0.03201,0.247591 0.04449,0.497317 0.03734,0.746866 0.02114,0.932286 -0.253374,1.847338 -0.78421,2.614031 -0.513946,0.732341 -1.2265852,1.302452 -2.0538819,1.643105 -0.9124393,0.369766 -1.8912331,0.547728 -2.8754338,0.522806 -1.7177918,0.07469 -3.1368372,-0.373433 -4.219793,-1.307015 z m 77.898127,0.672179 v 0 L 76.13574,11.587339 h -1.493732 v 3.921047 0 c 0.0013,1.644427 -2.463332,1.644427 -2.464657,0 v 0 -14.0037376 0 c -0.0013,-1.64442729 2.463332,-1.64442729 2.464657,0 v 0 7.8047495 h 1.531076 l 2.950121,-4.2571365 v 0 c 0.22782,-0.3122531 0.584831,-0.5044902 0.970925,-0.522806 0.66353,-0.00867 1.203655,0.5314557 1.194986,1.194986 0.0061,0.2433454 -0.0732,0.4811448 -0.22406,0.672179 v 0 l -2.838091,3.9957336 3.099494,4.294479 v 0 c 0.190324,0.217167 0.296339,0.495456 0.298747,0.78421 -0.0059,0.678145 -0.554184,1.226447 -1.232329,1.232329 -0.38213,0.04491 -0.757181,-0.128193 -0.970926,-0.44812 z m -29.799954,0.485463 h -0.634836 c -1.16026,0.06152 -2.294707,-0.357139 -3.136838,-1.157642 -0.785363,-0.851477 -1.201586,-1.979308 -1.157642,-3.136838 V 6.8073964 h -2.128568 v -0.485463 l 4.219793,-4.481196 h 0.410776 v 2.800748 h 2.464658 c 1.394149,0 1.394149,2.091225 0,2.091225 h -2.464658 v 5.4521216 c -0.03954,0.618361 0.176458,1.225847 0.597493,1.680449 0.456629,0.417674 1.062638,0.633144 1.680449,0.597493 h 0.261403 c 0.612423,0.01495 1.105346,0.507876 1.120299,1.120299 -0.0018,0.617958 -0.502341,1.118453 -1.120299,1.120299 h -0.03734 c -0.03734,0.03734 -0.03734,0.03734 -0.07469,0.03734 z m 3.6223,-1.194986 v 0 -10.9042436 h 1.717792 l 0.485463,1.680448 c 0.464419,-0.6295195 1.08122,-1.1306708 1.792478,-1.456388 0.748404,-0.3482376 1.564524,-0.5267641 2.389971,-0.522807 1.264189,-0.047115 2.483248,0.4733825 3.323554,1.419046 0.851334,1.0243264 1.290663,2.3290002 1.232329,3.6596434 v 6.0869582 0 c 0,1.643105 -2.464658,1.643105 -2.464658,0 v 0 -5.5268085 c 0,-1.0829559 -0.224059,-1.9418521 -0.709522,-2.5020011 -0.518369,-0.5837695 -1.274258,-0.8998685 -2.053882,-0.858896 -0.891857,-0.027883 -1.746513,0.3580912 -2.315285,1.045612 -0.613544,0.7295035 -0.933097,1.6615329 -0.896239,2.6140316 v 5.265405 0 c -0.07765,1.588454 -2.424352,1.588454 -2.502001,0 z m 13.518275,0.07469 v 0 -9.8212886 0 c 0.142582,-1.493733 2.322076,-1.493733 2.464658,0 v 0 9.8586326 0 c -0.0664,0.632332 -0.596548,1.114282 -1.232329,1.120295 -0.636934,-0.03649 -1.156136,-0.52423 -1.232329,-1.157642 z M 26.133061,10.80313 c 0,-3.2606207 -3.941943,-4.8929543 -6.247271,-2.5876268 -2.305327,2.3053278 -0.672994,6.2472708 2.587627,6.2472708 2.019802,-0.0033 3.656355,-1.639842 3.659644,-3.659644 z m -14.078425,0.149373 c 0.0059,-0.678145 0.554184,-1.2264463 1.232329,-1.2323285 h 0.970926 c 1.643915,-8.111e-4 1.643915,2.4638465 0,2.4646575 H 13.286965 C 12.60882,12.17895 12.060518,11.630648 12.054636,10.952503 Z M 66.501169,1.5046484 c 0,-0.80434149 0.652048,-1.45638914 1.456389,-1.45638897 1.940795,0.0010546 1.940795,2.91383157 0,2.91277697 -0.804341,2e-7 -1.456389,-0.6520469 -1.456389,-1.456388 z"
     fill="#fff"
     fill-rule="evenodd"
     style="fill:#125c8a;fill-opacity:1;stroke-width:0.373433"
     sodipodi:nodetypes="ccsscccccsssccccsccsccccccscscsssccccccccccccccccccccsscssccccccccccssscccccsccccssccccccccccccccccccsccccssccssccccsccscccsccsccccccccccssccccccccscscccccccccsscscccccsscccssccscsccsccccccccsccs" />
</svg>
